<?xml version="1.0" standalone="no"?>
<!DOCTYPE svg PUBLIC "-//W3C//DTD SVG 1.1//EN" "http://www.w3.org/Graphics/SVG/1.1/DTD/svg11.dtd" >
<svg xmlns="http://www.w3.org/2000/svg" xmlns:xlink="http://www.w3.org/1999/xlink" version="1.1">
<metadata>
Created by FontForge 20170731 at Tue Dec 29 07:30:17 2020
 By Aleksey,,,
</metadata>
<defs>
<font id="NotoSans" horiz-adv-x="1128" >
  <font-face 
    font-family="Noto Sans"
    font-weight="400"
    font-stretch="normal"
    units-per-em="2048"
    panose-1="2 11 8 2 4 5 4 2 2 4"
    ascent="1638"
    descent="-410"
    x-height="1118"
    cap-height="1462"
    bbox="-152 -492 1980 1907"
    underline-thickness="0"
    underline-position="0"
    unicode-range="U+0020-203A"
  />
<missing-glyph horiz-adv-x="748" 
d="M68 0v1365h544v-1365h-544zM136 68h408v1229h-408v-1229z" />
    <glyph glyph-name=".notdef" horiz-adv-x="748" 
d="M68 0v1365h544v-1365h-544zM136 68h408v1229h-408v-1229z" />
    <glyph glyph-name=".null" horiz-adv-x="0" 
 />
    <glyph glyph-name="nonmarkingreturn" horiz-adv-x="682" 
 />
    <glyph glyph-name="space" unicode=" " horiz-adv-x="532" 
 />
    <glyph glyph-name="exclam" unicode="!" horiz-adv-x="825" 
d="M570 485h-244l-51 977h346zM271 143q0 47 13 79t38 53t56 29t69 9q35 0 66 -9t56 -29t38 -52t14 -80q0 -45 -14 -77t-38 -53t-55 -30t-67 -10q-37 0 -69 9t-56 31t-37 53t-14 77z" />
    <glyph glyph-name="quotedbl" unicode="&#x22;" horiz-adv-x="1118" 
d="M502 1494l-41 -528h-197l-41 528h279zM924 1494l-41 -528h-197l-41 528h279z" />
    <glyph glyph-name="numbersign" unicode="#" horiz-adv-x="1363" 
d="M1019 767l-47 -232h245v-206h-284l-62 -329h-220l63 329h-194l-61 -329h-215l59 329h-224v206h263l47 232h-238v209h275l60 319h219l-60 -319h198l61 319h215l-61 -319h227v-209h-266zM559 535h196l47 232h-196z" />
    <glyph glyph-name="dollar" unicode="$" horiz-adv-x="1171" 
d="M1092 457q0 -159 -115 -255t-322 -116v-205h-137v201q-244 5 -428 86v264q87 -43 209 -76t219 -39v310l-67 26q-198 78 -280 169t-83 227q0 145 113 238t317 114v153h137v-149q229 -10 414 -92l-94 -234q-156 64 -320 78v-295q195 -75 277 -130t121 -121t39 -154z
M791 442q0 42 -34 71t-102 60v-249q136 23 136 118zM389 1049q0 -44 30 -72t99 -59v235q-129 -19 -129 -104z" />
    <glyph glyph-name="percent" unicode="%" horiz-adv-x="1842" 
d="M324 924q0 -82 25 -122t80 -41q54 0 80 40t26 123q0 162 -106 162q-55 0 -80 -40t-25 -122zM777 926q0 -87 -20 -156t-64 -117t-109 -73t-157 -26q-85 0 -149 25t-108 73t-66 117t-22 157q0 87 20 156t62 116t108 72t155 25q86 0 151 -25t110 -72t66 -116t23 -156z
M1434 1274l-801 -1274h-229l801 1274h229zM1307 351q0 -82 25 -122t80 -41q54 0 80 40t26 123q0 162 -106 162q-55 0 -80 -40t-25 -122zM1760 353q0 -87 -20 -156t-64 -116t-109 -73t-157 -26q-85 0 -149 25t-107 73t-66 117t-22 156q0 87 20 156t62 116t107 72t155 25
q86 0 151 -25t110 -72t66 -116t23 -156z" />
    <glyph glyph-name="ampersand" unicode="&#x26;" horiz-adv-x="1536" 
d="M1536 0h-377l-115 113q-191 -133 -432 -133q-244 0 -387 112t-143 303q0 137 60 233t208 181q-75 86 -109 164t-34 172q0 152 116 245t312 93q186 0 297 -86t112 -232q0 -119 -69 -217t-223 -188l284 -277q71 117 123 301h318q-36 -135 -99 -263t-143 -228zM403 424
q0 -86 64 -137t166 -51q126 0 227 61l-332 330q-58 -44 -91 -92t-34 -111zM762 1133q0 53 -36 83t-93 31q-67 0 -105 -32t-39 -91q0 -88 95 -194q86 48 132 94t46 109z" />
    <glyph glyph-name="quotesingle" unicode="'" horiz-adv-x="696" 
d="M502 1493l-41 -528h-197l-41 528h279z" />
    <glyph glyph-name="parenleft" unicode="(" horiz-adv-x="791" 
d="M135 673q0 143 18 282t55 270t93 251t135 227h250q-141 -221 -213 -485t-72 -542q0 -136 18 -271t54 -264t89 -250t122 -229h-248q-78 103 -134 220t-94 246t-55 266t-18 279z" />
    <glyph glyph-name="parenright" unicode=")" horiz-adv-x="791" 
d="M656 692q0 -143 -18 -282t-55 -270t-93 -251t-135 -227h-250q141 221 213 485t72 542q0 136 -18 271t-54 264t-89 250t-122 229h248q78 -103 134 -220t94 -246t55 -266t18 -279z" />
    <glyph glyph-name="asterisk" unicode="*" horiz-adv-x="1243" 
d="M761 1525l-41 -368l373 104l33 -252l-340 -24l223 -297l-227 -121l-156 313l-137 -311l-236 119l221 297l-338 26l39 250l365 -104l-41 368h262z" />
    <glyph glyph-name="plus" unicode="+" horiz-adv-x="1168" 
d="M475 552h-367v219h367v369h219v-369h366v-219h-366v-364h-219v364z" />
    <glyph glyph-name="comma" unicode="," horiz-adv-x="594" 
d="M444 288l15 -24q-14 -58 -33 -122t-43 -130t-49 -131t-51 -125h-220q15 65 29 135t28 139t25 135t18 123h281z" />
    <glyph glyph-name="hyphen" unicode="-" horiz-adv-x="749" 
d="M106 484v250h537v-250h-537z" />
    <glyph glyph-name="period" unicode="." horiz-adv-x="584" 
d="M117 143q0 47 13 79t38 53t56 29t69 9q35 0 66 -9t56 -29t38 -52t14 -80q0 -45 -14 -77t-38 -53t-55 -30t-67 -10q-37 0 -69 9t-56 31t-37 53t-14 77z" />
    <glyph glyph-name="slash" unicode="/" horiz-adv-x="966" 
d="M894 1705l-560 -2044h-262l560 2044h262z" />
    <glyph glyph-name="zero" unicode="0" 
d="M1065 731q0 -177 -27 -316t-88 -236t-156 -148t-231 -51q-127 0 -221 51t-156 148t-92 236t-31 316q0 177 27 317t88 237t155 148t230 52q126 0 220 -51t157 -148t94 -237t31 -318zM371 731q0 -250 43 -376t149 -126q104 0 149 125t46 377q0 251 -45 377t-150 127
q-53 0 -89 -32t-60 -95t-33 -157t-10 -220z" />
    <glyph glyph-name="one" unicode="1" 
d="M817 0h-309v846v62t2 76t3 80t3 73q-5 -6 -17 -18t-27 -26t-31 -30t-31 -27l-168 -135l-150 186l471 375h254v-1462z" />
    <glyph glyph-name="two" unicode="2" 
d="M1063 0h-981v215l344 371q65 70 118 129t91 115t59 114t21 125q0 74 -44 115t-120 41q-79 0 -152 -39t-153 -111l-168 199q45 41 94 78t108 67t130 46t159 18q105 0 188 -29t143 -82t90 -130t32 -171q0 -86 -30 -164t-82 -154t-120 -150t-147 -152l-176 -177v-14h596
v-260z" />
    <glyph glyph-name="three" unicode="3" 
d="M1006 1135q0 -76 -24 -136t-67 -106t-100 -76t-125 -47v-6q177 -22 268 -107t91 -231q0 -96 -34 -177t-106 -142t-180 -93t-256 -34q-118 0 -222 19t-194 60v263q45 -24 95 -42t100 -30t98 -19t92 -6q86 0 143 16t91 45t48 69t15 89q0 45 -18 81t-60 62t-109 40t-165 14
h-104v217h102q92 0 153 16t97 45t52 67t15 81q0 78 -48 122t-154 44q-48 0 -89 -9t-77 -24t-65 -32t-54 -35l-156 206q42 31 91 57t108 45t125 31t143 11q108 0 196 -23t152 -68t97 -109t35 -148z" />
    <glyph glyph-name="four" unicode="4" 
d="M1085 303h-176v-303h-301v303h-604v215l621 944h284v-919h176v-240zM608 543v248v37t2 56t2 64t3 63t3 52t3 33h-9q-18 -42 -40 -89t-52 -94l-244 -370h332z" />
    <glyph glyph-name="five" unicode="5" 
d="M598 934q94 0 175 -29t141 -85t94 -139t34 -192q0 -119 -37 -213t-109 -160t-178 -101t-245 -35q-55 0 -109 5t-103 14t-94 25t-81 35v267q35 -20 81 -37t95 -30t100 -20t95 -8q134 0 204 55t70 177q0 108 -68 164t-212 57q-26 0 -55 -3t-58 -8t-55 -10t-45 -12l-123 66
l55 745h772v-262h-504l-24 -287q32 7 74 14t110 7z" />
    <glyph glyph-name="six" unicode="6" 
d="M76 621q0 105 11 209t41 199t80 178t128 142t186 95t254 35q21 0 46 -1l50 -2t50 -5t43 -7v-247q-38 9 -80 14t-86 6q-135 0 -222 -33t-138 -94t-72 -144t-27 -186h12q20 36 48 67t67 54t85 36t107 13q95 0 171 -31t128 -90t81 -145t28 -197q0 -119 -33 -213t-96 -159
t-150 -100t-198 -35q-108 0 -202 38t-163 118t-109 199t-40 286zM584 227q41 0 74 15t58 47t38 80t14 114q0 107 -44 168t-136 62q-46 0 -84 -18t-65 -47t-41 -65t-15 -73q0 -51 12 -101t38 -91t63 -66t88 -25z" />
    <glyph glyph-name="seven" unicode="7" 
d="M207 0l520 1200h-672v260h1008v-194l-533 -1266h-323z" />
    <glyph glyph-name="eight" unicode="8" 
d="M565 1481q91 0 172 -22t142 -66t97 -110t36 -155q0 -66 -20 -119t-55 -97t-83 -78t-104 -62q58 -31 113 -69t99 -85t69 -107t26 -132q0 -91 -36 -165t-101 -126t-155 -80t-200 -28q-118 0 -210 27t-155 77t-95 123t-33 164q0 75 22 135t60 108t89 85t109 65
q-49 31 -92 67t-74 81t-50 99t-19 119q0 87 36 152t99 110t143 67t170 22zM358 389q0 -40 13 -73t38 -58t64 -37t88 -14q105 0 157 49t52 131q0 42 -17 75t-45 62t-63 53t-70 46l-22 14q-44 -22 -80 -47t-61 -56t-40 -67t-14 -78zM563 1255q-33 0 -61 -10t-49 -29t-33 -47
t-12 -63q0 -42 12 -72t34 -54t50 -42t61 -37q31 16 59 35t49 43t35 56t13 71q0 35 -12 63t-33 47t-50 29t-63 10z" />
    <glyph glyph-name="nine" unicode="9" 
d="M1055 838q0 -105 -11 -209t-41 -200t-80 -177t-128 -143t-186 -94t-255 -35q-21 0 -46 1l-50 2t-50 4t-42 7v248q37 -10 79 -15t87 -6q135 0 222 33t138 94t72 145t27 185h-13q-20 -36 -48 -67t-66 -54t-86 -36t-107 -13q-95 0 -171 31t-128 90t-81 145t-28 197
q0 119 33 213t96 159t150 101t199 35q108 0 202 -38t163 -118t109 -200t40 -285zM547 1231q-41 0 -75 -15t-58 -46t-38 -80t-14 -115q0 -106 45 -168t136 -62q46 0 84 18t65 47t41 65t15 73q0 51 -12 101t-38 91t-63 66t-88 25z" />
    <glyph glyph-name="colon" unicode=":" horiz-adv-x="663" 
d="M156 143q0 47 13 79t38 53t56 29t69 9q35 0 66 -9t56 -29t38 -52t14 -80q0 -45 -14 -77t-38 -53t-55 -30t-67 -10q-37 0 -69 9t-56 31t-37 53t-14 77zM156 969q0 47 13 79t38 53t56 29t69 9q35 0 66 -9t56 -29t38 -52t14 -80q0 -45 -14 -77t-38 -53t-55 -30t-67 -10
q-37 0 -69 9t-56 30t-37 53t-14 78z" />
    <glyph glyph-name="semicolon" unicode=";" horiz-adv-x="663" 
d="M483 288l15 -24q-14 -58 -33 -122t-43 -130t-49 -131t-51 -125h-220q15 65 29 135t28 139t25 135t19 123h280zM156 969q0 47 13 79t38 53t56 29t69 9q35 0 66 -9t56 -29t38 -52t14 -80q0 -45 -14 -77t-38 -53t-55 -30t-67 -10q-37 0 -69 9t-56 30t-37 53t-14 78z" />
    <glyph glyph-name="less" unicode="&#x3c;" horiz-adv-x="1168" 
d="M1060 143l-952 438v143l952 496v-240l-643 -317l643 -281v-239z" />
    <glyph glyph-name="equal" unicode="=" horiz-adv-x="1168" 
d="M108 747v217h952v-217h-952zM108 358v219h952v-219h-952z" />
    <glyph glyph-name="greater" unicode="&#x3e;" horiz-adv-x="1168" 
d="M108 382l643 281l-643 317v240l952 -496v-143l-952 -438v239z" />
    <glyph glyph-name="question" unicode="?" horiz-adv-x="1114" 
d="M366 485v74q0 51 10 92t32 79t56 73t82 74q42 33 71 59t47 51t26 54t8 65q0 57 -38 94t-118 37q-69 0 -148 -29t-165 -71l-102 221q43 25 93 47t105 40t111 28t110 10q102 0 184 -24t139 -72t87 -114t31 -153q0 -63 -14 -112t-41 -92t-69 -82t-97 -84q-42 -33 -68 -57
t-42 -47t-20 -45t-6 -56v-60h-264zM333 143q0 47 13 79t38 53t56 29t70 9q35 0 66 -9t56 -29t38 -52t14 -80q0 -45 -14 -77t-38 -53t-55 -30t-67 -10q-37 0 -69 9t-57 31t-37 53t-14 77z" />
    <glyph glyph-name="at" unicode="@" horiz-adv-x="1837" 
d="M1735 733q0 -144 -46 -264t-130 -187t-195 -67q-74 0 -131 35t-82 94h-16q-49 -60 -119 -94t-156 -35q-177 0 -279 106t-102 291q0 209 132 339t352 130q81 0 187 -15t173 -40l-23 -489q0 -140 76 -140q64 0 102 93t38 245q0 161 -66 284t-188 189t-279 66
q-201 0 -351 -84t-229 -240t-79 -360q0 -277 147 -424t428 -148q112 0 240 25t243 68v-193q-212 -90 -475 -90q-380 0 -592 200t-213 556q0 247 109 449t311 315t459 114q220 0 393 -90t267 -256t94 -383zM711 608q0 -211 172 -211q89 0 136 63t58 208l13 221
q-46 10 -115 10q-125 0 -194 -78t-70 -213z" />
    <glyph glyph-name="A" unicode="A" horiz-adv-x="1413" 
d="M1079 0l-106 348h-533l-106 -348h-334l516 1468h379l518 -1468h-334zM899 608q-147 473 -165 535t-27 98q-33 -128 -189 -633h381z" />
    <glyph glyph-name="B" unicode="B" horiz-adv-x="1376" 
d="M184 1462h455q311 0 451 -88t141 -282q0 -131 -61 -215t-164 -101v-10q139 -31 200 -116t62 -226q0 -200 -144 -312t-393 -112h-547v1462zM494 883h180q126 0 182 39t57 129q0 84 -61 120t-195 37h-163v-325zM494 637v-381h202q128 0 189 49t61 150q0 182 -260 182h-192z
" />
    <glyph glyph-name="C" unicode="C" horiz-adv-x="1305" 
d="M805 1225q-175 0 -271 -131t-96 -367q0 -489 367 -489q154 0 373 77v-260q-180 -75 -402 -75q-319 0 -488 193t-169 556q0 228 83 399t238 263t365 92q213 0 428 -103l-100 -252q-82 39 -165 68t-163 29z" />
    <glyph glyph-name="D" unicode="D" horiz-adv-x="1516" 
d="M1397 745q0 -361 -205 -553t-594 -192h-414v1462h459q358 0 556 -189t198 -528zM1075 737q0 471 -416 471h-165v-952h133q448 0 448 481z" />
    <glyph glyph-name="E" unicode="E" horiz-adv-x="1147" 
d="M1026 0h-842v1462h842v-254h-532v-321h495v-254h-495v-377h532v-256z" />
    <glyph glyph-name="F" unicode="F" horiz-adv-x="1124" 
d="M489 0h-305v1462h838v-254h-533v-377h496v-253h-496v-578z" />
    <glyph glyph-name="G" unicode="G" horiz-adv-x="1483" 
d="M739 821h580v-758q-141 -46 -265 -64t-255 -19q-331 0 -505 194t-175 559q0 354 202 552t562 198q225 0 434 -90l-103 -248q-160 80 -333 80q-201 0 -322 -135t-121 -363q0 -238 97 -363t284 -126q97 0 197 20v305h-277v258z" />
    <glyph glyph-name="H" unicode="H" horiz-adv-x="1567" 
d="M1382 0h-309v631h-579v-631h-310v1462h310v-573h579v573h309v-1462z" />
    <glyph glyph-name="I" unicode="I" horiz-adv-x="797" 
d="M731 0h-665v176l178 82v946l-178 82v176h665v-176l-178 -82v-946l178 -82v-176z" />
    <glyph glyph-name="J" unicode="J" horiz-adv-x="678" 
d="M31 -430q-105 0 -183 22v258q80 -20 146 -20q102 0 146 63t44 199v1370h310v-1368q0 -256 -117 -390t-346 -134z" />
    <glyph glyph-name="K" unicode="K" horiz-adv-x="1360" 
d="M1360 0h-352l-383 616l-131 -94v-522h-310v1462h310v-669l122 172l396 497h344l-510 -647z" />
    <glyph glyph-name="L" unicode="L" horiz-adv-x="1157" 
d="M184 0v1462h310v-1206h593v-256h-903z" />
    <glyph glyph-name="M" unicode="M" horiz-adv-x="1931" 
d="M803 0l-352 1147h-9q19 -350 19 -467v-680h-277v1462h422l346 -1118h6l367 1118h422v-1462h-289v692q0 49 1 113t14 340h-9l-377 -1145h-284z" />
    <glyph glyph-name="N" unicode="N" horiz-adv-x="1665" 
d="M1481 0h-394l-636 1106h-9q19 -293 19 -418v-688h-277v1462h391l635 -1095h7q-15 285 -15 403v692h279v-1462z" />
    <glyph glyph-name="O" unicode="O" horiz-adv-x="1630" 
d="M1511 733q0 -363 -180 -558t-516 -195t-516 195t-180 560t180 557t518 193q337 0 515 -194t179 -558zM444 733q0 -245 93 -369t278 -124q371 0 371 493q0 494 -369 494q-185 0 -279 -124t-94 -370z" />
    <glyph glyph-name="P" unicode="P" horiz-adv-x="1286" 
d="M494 774h102q143 0 214 56t71 165t-59 161t-187 52h-141v-434zM1194 1006q0 -236 -147 -361t-420 -125h-133v-520h-310v1462h467q266 0 404 -114t139 -342z" />
    <glyph glyph-name="Q" unicode="Q" horiz-adv-x="1630" 
d="M1511 733q0 -258 -91 -432t-269 -256l352 -393h-397l-268 328h-23q-336 0 -516 195t-180 560t180 557t518 193q337 0 515 -194t179 -558zM444 733q0 -245 93 -369t278 -124q371 0 371 493q0 494 -369 494q-185 0 -279 -124t-94 -370z" />
    <glyph glyph-name="R" unicode="R" horiz-adv-x="1352" 
d="M494 813h100q147 0 217 49t70 154q0 104 -71 148t-222 44h-94v-395zM494 561v-561h-310v1462h426q298 0 441 -108t143 -330q0 -129 -71 -229t-201 -158l430 -637h-344l-349 561h-165z" />
    <glyph glyph-name="S" unicode="S" 
d="M1047 406q0 -198 -142 -312t-397 -114q-234 0 -414 88v288q148 -66 250 -93t188 -27q102 0 156 39t55 116q0 43 -24 76t-70 65t-190 99q-134 63 -201 121t-107 135t-40 180q0 194 131 305t364 111q114 0 217 -27t217 -76l-100 -241q-117 48 -193 67t-151 19
q-88 0 -135 -41t-47 -107q0 -41 19 -71t60 -59t197 -103q205 -98 281 -196t76 -242z" />
    <glyph glyph-name="T" unicode="T" horiz-adv-x="1186" 
d="M748 0h-310v1204h-397v258h1104v-258h-397v-1204z" />
    <glyph glyph-name="U" unicode="U" horiz-adv-x="1548" 
d="M1374 1462v-946q0 -162 -72 -284t-210 -187t-324 -65q-282 0 -438 144t-156 396v942h309v-895q0 -169 68 -248t225 -79q152 0 220 79t69 250v893h309z" />
    <glyph glyph-name="V" unicode="V" horiz-adv-x="1331" 
d="M1018 1462h313l-497 -1462h-338l-496 1462h313l275 -870q23 -77 47 -179t31 -143q11 92 75 322z" />
    <glyph glyph-name="W" unicode="W" horiz-adv-x="1980" 
d="M1608 0h-353l-198 768q-11 41 -37 169t-31 173q-6 -54 -30 -173t-37 -171l-197 -766h-352l-373 1462h305l187 -798q49 -221 71 -383q6 57 27 176t41 186l213 819h293l213 -819q14 -55 35 -168t32 -194q10 78 32 194t40 189l186 798h305z" />
    <glyph glyph-name="X" unicode="X" horiz-adv-x="1366" 
d="M1366 0h-354l-340 553l-340 -553h-332l485 754l-454 708h342l315 -526l309 526h334l-459 -725z" />
    <glyph glyph-name="Y" unicode="Y" horiz-adv-x="1278" 
d="M639 860l305 602h334l-485 -893v-569h-308v559l-485 903h336z" />
    <glyph glyph-name="Z" unicode="Z" horiz-adv-x="1186" 
d="M1137 0h-1088v201l701 1005h-682v256h1050v-200l-700 -1006h719v-256z" />
    <glyph glyph-name="bracketleft" unicode="[" horiz-adv-x="798" 
d="M698 -339h-484v2043h484v-211h-224v-1621h224v-211z" />
    <glyph glyph-name="backslash" unicode="\" horiz-adv-x="966" 
d="M334 1705l560 -2044h-262l-560 2044h262z" />
    <glyph glyph-name="bracketright" unicode="]" horiz-adv-x="798" 
d="M100 1704h484v-2043h-484v211h224v1621h-224v211z" />
    <glyph glyph-name="asciicircum" unicode="^" horiz-adv-x="1168" 
d="M45 520l438 950h144l495 -950h-239l-322 643q-69 -161 -140 -324t-140 -319h-236z" />
    <glyph glyph-name="underscore" unicode="_" horiz-adv-x="842" 
d="M846 -324h-850v140h850v-140z" />
    <glyph glyph-name="grave" unicode="`" horiz-adv-x="1243" 
d="M707 1241q-63 44 -185 142t-190 165v21h342q63 -101 235 -301v-27h-202z" />
    <glyph glyph-name="a" unicode="a" horiz-adv-x="1237" 
d="M870 0l-59 152h-8q-77 -97 -158 -134t-213 -38q-161 0 -253 92t-93 262q0 178 124 262t376 94l194 6v49q0 170 -174 170q-134 0 -315 -81l-101 206q193 101 428 101q225 0 345 -98t120 -298v-745h-213zM780 518l-118 -4q-133 -4 -198 -48t-65 -134q0 -129 148 -129
q106 0 169 61t64 162v92z" />
    <glyph glyph-name="b" unicode="b" horiz-adv-x="1296" 
d="M782 1139q198 0 310 -154t112 -424q0 -277 -115 -429t-315 -152q-197 0 -309 143h-21l-51 -123h-233v1556h305v-362q0 -69 -12 -221h12q107 166 317 166zM684 895q-113 0 -165 -69t-54 -230v-33q0 -180 53 -258t170 -78q94 0 149 86t56 252q0 165 -56 247t-153 83z" />
    <glyph glyph-name="c" unicode="c" horiz-adv-x="1053" 
d="M614 -20q-522 0 -522 573q0 285 142 435t407 151q194 0 348 -76l-90 -236q-72 29 -134 47t-124 19q-238 0 -238 -338q0 -328 238 -328q88 0 163 23t150 74v-261q-74 -47 -149 -65t-191 -18z" />
    <glyph glyph-name="d" unicode="d" horiz-adv-x="1296" 
d="M514 -20q-197 0 -309 153t-113 424q0 275 114 428t316 154q211 0 322 -164h10q-23 125 -23 223v358h306v-1556h-234l-59 145h-13q-104 -165 -317 -165zM621 223q117 0 171 68t60 231v33q0 180 -55 258t-181 78q-102 0 -158 -86t-57 -252q0 -165 57 -247t163 -83z" />
    <glyph glyph-name="e" unicode="e" horiz-adv-x="1210" 
d="M623 922q-97 0 -152 -61t-63 -175h428q-2 113 -59 174t-154 62zM666 -20q-270 0 -422 149t-152 422q0 281 140 434t389 154q237 0 369 -135t132 -373v-148h-721q5 -130 77 -203t202 -73q101 0 191 21t188 67v-236q-80 -40 -171 -59t-222 -20z" />
    <glyph glyph-name="f" unicode="f" horiz-adv-x="793" 
d="M778 889h-264v-889h-305v889h-168v147l168 82v82q0 191 94 279t301 88q158 0 281 -47l-78 -224q-92 29 -170 29q-65 0 -94 -38t-29 -99v-70h264v-229z" />
    <glyph glyph-name="g" unicode="g" horiz-adv-x="1296" 
d="M623 219q123 0 176 70t53 229v37q0 179 -55 257t-179 79q-215 0 -215 -338q0 -168 53 -251t167 -83zM1137 -2q0 -241 -140 -365t-419 -125q-245 0 -418 66v244q203 -86 436 -86q235 0 235 254v22l9 137h-9q-107 -165 -317 -165q-201 0 -311 155t-111 422q0 275 114 428
t316 154q206 0 324 -164h8l25 143h258v-1120z" />
    <glyph glyph-name="h" unicode="h" horiz-adv-x="1346" 
d="M1192 0h-305v653q0 242 -180 242q-128 0 -185 -87t-57 -282v-526h-305v1556h305v-317q0 -37 -7 -174l-7 -90h16q102 164 324 164q197 0 299 -106t102 -304v-729z" />
    <glyph glyph-name="i" unicode="i" horiz-adv-x="625" 
d="M147 1407q0 149 166 149t166 -149q0 -71 -41 -110t-125 -40q-166 0 -166 150zM465 0h-305v1118h305v-1118z" />
    <glyph glyph-name="j" unicode="j" horiz-adv-x="625" 
d="M70 -492q-117 0 -201 25v240q70 -19 143 -19q77 0 112 43t36 127v1194h305v-1239q0 -178 -103 -274t-292 -97zM147 1407q0 149 166 149t166 -149q0 -71 -41 -110t-125 -40q-166 0 -166 150z" />
    <glyph glyph-name="k" unicode="k" horiz-adv-x="1270" 
d="M453 608l133 170l313 340h344l-444 -485l471 -633h-352l-322 453l-131 -105v-348h-305v1556h305v-694l-16 -254h4z" />
    <glyph glyph-name="l" unicode="l" horiz-adv-x="625" 
d="M465 0h-305v1556h305v-1556z" />
    <glyph glyph-name="m" unicode="m" horiz-adv-x="2011" 
d="M1161 0h-305v653q0 121 -40 181t-128 61q-117 0 -170 -86t-53 -283v-526h-305v1118h233l41 -143h17q45 77 130 120t195 44q251 0 340 -164h27q45 78 132 121t198 43q190 0 287 -97t98 -313v-729h-306v653q0 121 -40 181t-128 61q-112 0 -167 -80t-56 -254v-561z" />
    <glyph glyph-name="n" unicode="n" horiz-adv-x="1346" 
d="M1192 0h-305v653q0 121 -43 181t-137 61q-128 0 -185 -85t-57 -284v-526h-305v1118h233l41 -143h17q51 81 140 122t204 42q195 0 296 -105t101 -305v-729z" />
    <glyph glyph-name="o" unicode="o" horiz-adv-x="1268" 
d="M403 561q0 -166 54 -251t178 -85q122 0 175 84t54 252q0 166 -54 249t-177 83q-122 0 -176 -82t-54 -250zM1176 561q0 -273 -144 -427t-401 -154q-161 0 -284 70t-189 203t-66 308q0 274 143 426t402 152q161 0 284 -70t189 -201t66 -307z" />
    <glyph glyph-name="p" unicode="p" horiz-adv-x="1296" 
d="M774 -20q-197 0 -309 143h-16q16 -140 16 -162v-453h-305v1610h248l43 -145h14q107 166 317 166q198 0 310 -153t112 -425q0 -179 -52 -311t-150 -201t-228 -69zM684 895q-113 0 -165 -69t-54 -230v-33q0 -180 53 -258t170 -78q205 0 205 338q0 165 -50 247t-159 83z" />
    <glyph glyph-name="q" unicode="q" horiz-adv-x="1296" 
d="M623 219q116 0 170 66t59 233v37q0 180 -55 258t-179 78q-215 0 -215 -338q0 -168 53 -251t167 -83zM514 -20q-198 0 -310 152t-112 425q0 274 114 428t314 154q106 0 185 -40t139 -124h8l27 143h258v-1610h-306v469q0 61 13 168h-13q-49 -81 -130 -123t-187 -42z" />
    <glyph glyph-name="r" unicode="r" horiz-adv-x="930" 
d="M784 1139q62 0 103 -9l-23 -286q-37 10 -90 10q-146 0 -227 -75t-82 -210v-569h-305v1118h231l45 -188h15q52 94 140 151t193 58z" />
    <glyph glyph-name="s" unicode="s" horiz-adv-x="1018" 
d="M940 332q0 -172 -119 -262t-358 -90q-122 0 -208 16t-161 49v252q85 -40 191 -67t188 -27q166 0 166 96q0 36 -22 58t-76 51t-144 67q-129 54 -189 100t-88 105t-28 147q0 149 115 230t328 82q202 0 393 -88l-92 -220q-84 36 -157 59t-149 23q-135 0 -135 -73
q0 -41 43 -71t191 -89q131 -53 192 -99t90 -106t29 -143z" />
    <glyph glyph-name="t" unicode="t" horiz-adv-x="889" 
d="M631 223q80 0 192 35v-227q-114 -51 -280 -51q-183 0 -266 92t-84 278v539h-146v129l168 102l88 236h195v-238h313v-229h-313v-539q0 -65 36 -96t97 -31z" />
    <glyph glyph-name="u" unicode="u" horiz-adv-x="1346" 
d="M952 0l-41 143h-16q-49 -78 -139 -120t-205 -43q-197 0 -297 105t-100 304v729h305v-653q0 -121 43 -181t137 -61q128 0 185 85t57 284v526h305v-1118h-234z" />
    <glyph glyph-name="v" unicode="v" horiz-adv-x="1165" 
d="M426 0l-426 1118h319l216 -637q33 -104 43 -229h8q6 113 45 229l215 637h319l-426 -1118h-313z" />
    <glyph glyph-name="w" unicode="w" horiz-adv-x="1753" 
d="M1079 0l-86 391l-114 494h-9l-204 -885h-328l-318 1118h304l129 -495q22 -88 61 -367h8q4 76 35 241l16 85l138 536h336l131 -536q12 -55 29 -161t20 -165h8q11 89 31 202t34 165l134 495h299l-322 -1118h-332z" />
    <glyph glyph-name="x" unicode="x" horiz-adv-x="1184" 
d="M389 571l-360 547h346l217 -356l219 356h346l-364 -547l381 -571h-347l-235 383l-236 -383h-346z" />
    <glyph glyph-name="y" unicode="y" horiz-adv-x="1165" 
d="M0 1118h334l211 -629q27 -82 37 -194h6q11 103 43 194l207 629h327l-473 -1261q-65 -175 -185 -262t-282 -87q-79 0 -155 17v242q55 -13 120 -13q81 0 141 49t95 150l18 55z" />
    <glyph glyph-name="z" unicode="z" horiz-adv-x="999" 
d="M938 0h-883v180l518 705h-487v233h834v-198l-504 -687h522v-233z" />
    <glyph glyph-name="braceleft" unicode="{" horiz-adv-x="872" 
d="M78 562v239q62 0 110 11t82 36t49 64t15 96v371q0 86 19 147t68 101t135 57t216 19v-225q-40 -1 -72 -8t-55 -26t-35 -51t-12 -83v-357q-6 -223 -234 -265v-12q115 -20 176 -86t58 -178v-357q0 -51 12 -83t34 -50t55 -26t73 -9v-226q-131 0 -216 18t-134 58t-69 101
t-19 148v367q0 113 -65 161t-191 48z" />
    <glyph glyph-name="bar" unicode="|" horiz-adv-x="1105" 
d="M443 1703h219v-2042h-219v2042z" />
    <glyph glyph-name="braceright" unicode="}" horiz-adv-x="872" 
d="M794 563q-62 0 -110 -11t-82 -36t-49 -64t-15 -96v-371q0 -86 -19 -147t-68 -101t-135 -57t-216 -19v225q40 1 72 8t55 26t35 51t12 83v357q6 223 234 265v12q-115 20 -176 86t-58 178v357q0 51 -12 83t-34 50t-55 26t-73 9v226q131 0 216 -18t134 -58t69 -101t19 -148
v-367q0 -113 65 -161t191 -48v-239z" />
    <glyph glyph-name="asciitilde" unicode="~" horiz-adv-x="1168" 
d="M548 556q-37 16 -65 27t-52 17t-45 9t-44 3q-29 0 -60 -9t-61 -26t-58 -39t-55 -47v231q51 54 114 81t142 28q30 0 55 -2t54 -10t64 -19t83 -33q38 -16 66 -26t53 -17t45 -9t43 -3q29 0 60 9t61 26t58 38t54 48v-231q-101 -109 -256 -109q-30 0 -55 2t-54 9t-64 19
t-83 33z" />
    <glyph glyph-name="uni00A0" unicode="&#xa0;" horiz-adv-x="532" 
 />
    <glyph glyph-name="exclamdown" unicode="&#xa1;" horiz-adv-x="586" 
d="M168 606h244l51 -975h-346zM467 948q0 -84 -45 -127t-131 -43q-83 0 -128 44t-46 126q0 81 46 125t128 45q84 0 130 -44t46 -126z" />
    <glyph glyph-name="cent" unicode="&#xa2;" horiz-adv-x="1171" 
d="M563 176q-420 59 -420 565q0 261 104 403t316 173v166h178v-158q166 -9 299 -74l-90 -235q-72 29 -134 47t-124 18q-121 0 -179 -83t-58 -255q0 -327 237 -327q82 0 148 15t166 61v-254q-127 -61 -265 -70v-188h-178v196z" />
    <glyph glyph-name="sterling" unicode="&#xa3;" horiz-adv-x="1171" 
d="M700 1483q195 0 390 -82l-93 -230q-157 64 -272 64q-78 0 -120 -44t-42 -128v-193h375v-219h-375v-143q0 -170 -151 -248h718v-260h-1048v248q103 44 141 101t39 157v145h-178v219h178v195q0 201 114 309t324 109z" />
    <glyph glyph-name="currency" unicode="&#xa4;" horiz-adv-x="1171" 
d="M188 723q0 102 54 197l-129 127l147 147l127 -127q91 53 197 53q105 0 196 -55l127 129l150 -143l-129 -129q53 -89 53 -199q0 -107 -53 -199l125 -125l-146 -145l-127 125q-95 -51 -196 -51q-115 0 -199 51l-125 -123l-145 145l127 125q-54 93 -54 197zM395 723
q0 -77 54 -132t135 -56q81 0 136 55t56 133q0 80 -56 135t-136 55q-78 0 -133 -56t-56 -134z" />
    <glyph glyph-name="yen" unicode="&#xa5;" horiz-adv-x="1171" 
d="M584 860l264 602h313l-383 -747h195v-178h-246v-138h246v-178h-246v-221h-287v221h-247v178h247v138h-247v178h190l-377 747h316z" />
    <glyph glyph-name="brokenbar" unicode="&#xa6;" 
d="M455 1550h219v-815h-219v815zM455 350h219v-815h-219v815z" />
    <glyph glyph-name="section" unicode="&#xa7;" horiz-adv-x="995" 
d="M121 801q0 154 133 248q-133 84 -133 231q0 129 111 208t294 79q170 0 363 -84l-82 -191q-106 50 -167 67t-120 17q-81 0 -118 -22t-37 -70q0 -46 46 -82t167 -84q168 -69 242 -151t75 -187q0 -178 -125 -258q62 -40 93 -92t32 -127q0 -148 -119 -235t-321 -88
q-203 0 -349 79v207q81 -41 180 -69t169 -29q194 0 194 117q0 39 -18 63t-64 49t-125 60q-186 75 -253 152t-68 192zM344 823q0 -64 62 -114t184 -99q78 57 78 144q0 69 -54 115t-180 92q-38 -15 -64 -52t-26 -86z" />
    <glyph glyph-name="dieresis" unicode="&#xa8;" horiz-adv-x="1243" 
d="M279 1405q0 65 37 100t102 35q66 0 103 -37t38 -98q0 -60 -38 -96t-103 -37q-64 0 -101 35t-38 98zM682 1405q0 70 40 102t101 33q65 0 103 -36t39 -99q0 -61 -39 -97t-103 -36q-60 0 -100 32t-41 101z" />
    <glyph glyph-name="copyright" unicode="&#xa9;" horiz-adv-x="1704" 
d="M893 1055q-119 0 -186 -85t-68 -239q0 -157 58 -241t194 -84q95 0 215 47v-131q-60 -27 -109 -38t-114 -12q-193 0 -298 120t-106 339q0 209 111 333t301 124q130 0 252 -62l-60 -125q-106 54 -190 54zM100 731q0 200 100 375t275 276t377 101q200 0 375 -100t276 -275
t101 -377q0 -197 -97 -370t-272 -277t-383 -104q-207 0 -382 103t-272 277t-98 371zM209 731q0 -172 86 -321t235 -235t322 -87q172 0 321 86t235 235t87 322q0 172 -86 321t-235 235t-322 87q-172 0 -321 -86t-235 -235t-87 -322z" />
    <glyph glyph-name="ordfeminine" unicode="&#xaa;" horiz-adv-x="784" 
d="M561 764l-31 110q-43 -58 -105 -90t-136 -32q-117 0 -179 58t-63 165q0 109 82 163t268 64l99 4q0 117 -127 117q-81 0 -217 -61l-66 135q66 32 145 57t179 25q137 0 211 -71t75 -202v-442h-135zM252 977q0 -38 23 -56t55 -18q77 0 121 41t45 107v36l-99 -6
q-145 -10 -145 -104z" />
    <glyph glyph-name="guillemotleft" unicode="&#xab;" horiz-adv-x="1260" 
d="M82 573l371 455l219 -119l-279 -348l279 -348l-219 -119l-371 453v26zM588 573l370 455l220 -119l-279 -348l279 -348l-220 -119l-370 453v26z" />
    <glyph glyph-name="logicalnot" unicode="&#xac;" horiz-adv-x="1171" 
d="M1081 248h-219v364h-774v219h993v-583z" />
    <glyph glyph-name="uni00AD" unicode="&#xad;" horiz-adv-x="659" 
d="M61 424v250h537v-250h-537z" />
    <glyph glyph-name="registered" unicode="&#xae;" horiz-adv-x="1704" 
d="M727 764h102q81 0 125 40t45 105q0 73 -41 105t-131 33h-100v-283zM1157 913q0 -83 -43 -143t-117 -90l238 -397h-176l-205 354h-127v-354h-156v895h263q168 0 245 -65t78 -200zM100 731q0 200 100 375t275 276t377 101q200 0 375 -100t276 -275t101 -377
q0 -197 -97 -370t-272 -277t-383 -104q-207 0 -382 103t-272 277t-98 371zM209 731q0 -172 86 -321t235 -235t322 -87q172 0 321 86t235 235t87 322q0 172 -86 321t-235 235t-322 87q-172 0 -321 -86t-235 -235t-87 -322z" />
    <glyph glyph-name="macron" unicode="&#xaf;" horiz-adv-x="749" 
d="M106 484v250h537v-250h-537z" />
    <glyph glyph-name="degree" unicode="&#xb0;" horiz-adv-x="877" 
d="M92 1137q0 92 46 172t126 127t174 47q92 0 172 -46t127 -127t47 -173q0 -93 -46 -173t-127 -126t-173 -45q-145 0 -245 99t-101 245zM283 1137q0 -64 44 -109t111 -45q66 0 111 46t45 108q0 63 -45 110t-111 47q-64 0 -109 -46t-46 -111z" />
    <glyph glyph-name="plusminus" unicode="&#xb1;" horiz-adv-x="1171" 
d="M475 674h-387v219h387v389h219v-389h387v-219h-387v-385h-219v385zM88 0v219h993v-219h-993z" />
    <glyph glyph-name="uni00B2" unicode="&#xb2;" horiz-adv-x="776" 
d="M702 586h-647v168l224 219q102 100 130 144t29 95q0 38 -24 58t-64 20q-81 0 -180 -88l-123 152q147 129 336 129q137 0 216 -66t79 -184q0 -85 -47 -160t-176 -192l-105 -95h352v-200z" />
    <glyph glyph-name="uni00B3" unicode="&#xb3;" horiz-adv-x="776" 
d="M666 1249q0 -143 -170 -198v-13q94 -20 146 -75t52 -134q0 -121 -88 -190t-274 -70q-143 0 -273 70v190q148 -90 271 -90q143 0 143 107q0 53 -44 79t-122 27h-112v160h92q83 0 123 26t41 83q0 38 -25 63t-76 25q-47 0 -89 -19t-99 -59l-101 141q62 47 137 78t179 31
q127 0 208 -64t81 -168z" />
    <glyph glyph-name="acute" unicode="&#xb4;" horiz-adv-x="1243" 
d="M332 1241v27q172 200 235 301h342v-21q-52 -52 -177 -154t-197 -153h-203z" />
    <glyph glyph-name="mu" unicode="&#xb5;" horiz-adv-x="1352" 
d="M465 465q0 -121 44 -181t138 -61q126 0 183 86t57 283v526h305v-1118h-231l-43 150h-15q-42 -85 -102 -127t-148 -43q-62 0 -114 23t-84 67l5 -85l5 -157v-320h-305v1610h305v-653z" />
    <glyph glyph-name="paragraph" unicode="&#xb6;" horiz-adv-x="1341" 
d="M1167 -260h-161v1616h-166v-1616h-162v819q-62 -18 -146 -18q-216 0 -317 125t-102 376q0 260 109 387t341 127h604v-1816z" />
    <glyph glyph-name="periodcentered" unicode="&#xb7;" horiz-adv-x="584" 
d="M117 723q0 84 45 127t131 43q83 0 128 -44t46 -126q0 -81 -46 -125t-128 -45q-84 0 -130 44t-46 126z" />
    <glyph glyph-name="cedilla" unicode="&#xb8;" horiz-adv-x="420" 
d="M418 -250q0 -128 -75 -185t-234 -57q-78 0 -146 21v168q27 -7 72 -14t71 -7q72 0 72 62q0 83 -166 108l78 154h193l-27 -61q74 -24 118 -74t44 -115z" />
    <glyph glyph-name="uni00B9" unicode="&#xb9;" horiz-adv-x="776" 
d="M584 586h-238v446l3 112l5 95q-27 -36 -75 -78l-78 -61l-109 127l301 235h191v-876z" />
    <glyph glyph-name="ordmasculine" unicode="&#xba;" horiz-adv-x="795" 
d="M737 1116q0 -171 -91 -267t-251 -97q-153 0 -245 98t-93 266q0 169 89 266t253 97q152 0 245 -98t93 -265zM260 1116q0 -100 32 -150t105 -51q72 0 103 50t32 151q0 100 -31 149t-104 50q-72 0 -104 -49t-33 -150z" />
    <glyph glyph-name="guillemotright" unicode="&#xbb;" horiz-adv-x="1260" 
d="M1178 547l-371 -453l-219 119l278 348l-278 348l219 119l371 -455v-26zM672 547l-371 -453l-219 119l278 348l-278 348l219 119l371 -455v-26z" />
    <glyph glyph-name="onequarter" unicode="&#xbc;" horiz-adv-x="1804" 
d="M794 586h-238v446l3 112l5 95q-27 -36 -75 -78l-78 -61l-109 127l301 235h191v-876zM1370 1462l-811 -1462h-239l811 1462h239zM1682 152h-125v-151h-238v151h-383v154l385 577h236v-563h125v-168zM1319 320v164q0 86 6 184q-9 -26 -35 -80t-42 -77l-127 -191h198z" />
    <glyph glyph-name="onehalf" unicode="&#xbd;" horiz-adv-x="1804" 
d="M794 586h-238v446l3 112l5 95q-27 -36 -75 -78l-78 -61l-109 127l301 235h191v-876zM1370 1462l-811 -1462h-239l811 1462h239zM1716 1h-647v168l224 219q102 100 130 144t29 95q0 38 -24 58t-64 20q-81 0 -180 -88l-123 152q147 129 336 129q137 0 216 -66t79 -184
q0 -85 -47 -160t-176 -192l-105 -95h352v-200z" />
    <glyph glyph-name="threequarters" unicode="&#xbe;" horiz-adv-x="1804" 
d="M697 1249q0 -143 -170 -198v-13q94 -20 146 -75t52 -134q0 -121 -88 -190t-274 -70q-143 0 -273 70v190q148 -90 271 -90q143 0 143 107q0 53 -44 79t-122 27h-112v160h92q83 0 123 26t41 83q0 38 -25 63t-76 25q-47 0 -89 -19t-99 -59l-101 141q62 47 137 78t179 31
q127 0 208 -64t81 -168zM1441 1462l-811 -1462h-239l811 1462h239zM1712 152h-125v-151h-238v151h-383v154l385 577h236v-563h125v-168zM1349 320v164q0 86 6 184q-9 -26 -35 -80t-42 -77l-127 -191h198z" />
    <glyph glyph-name="questiondown" unicode="&#xbf;" horiz-adv-x="977" 
d="M713 606v-74q0 -98 -44 -169t-153 -148q-109 -78 -137 -122t-29 -107q0 -57 43 -94t133 -37q79 0 169 29t186 71l102 -221q-98 -56 -221 -90t-230 -35q-220 0 -345 96t-126 266q0 108 48 187t192 184q95 70 121 107t27 98v59h264zM745 948q0 -84 -45 -127t-131 -43
q-83 0 -128 44t-46 126q0 81 46 125t128 45q84 0 130 -44t46 -126z" />
    <glyph glyph-name="Agrave" unicode="&#xc0;" horiz-adv-x="1413" 
d="M1079 0l-106 348h-533l-106 -348h-334l516 1468h379l518 -1468h-334zM899 608q-147 473 -165 535t-27 98q-33 -128 -189 -633h381zM713 1579q-63 44 -185 142t-190 165v21h342q63 -101 235 -301v-27h-202z" />
    <glyph glyph-name="Aacute" unicode="&#xc1;" horiz-adv-x="1413" 
d="M1079 0l-106 348h-533l-106 -348h-334l516 1468h379l518 -1468h-334zM899 608q-147 473 -165 535t-27 98q-33 -128 -189 -633h381zM541 1579v27q172 200 235 301h342v-21q-52 -52 -177 -154t-197 -153h-203z" />
    <glyph glyph-name="Acircumflex" unicode="&#xc2;" horiz-adv-x="1413" 
d="M1079 0l-106 348h-533l-106 -348h-334l516 1468h379l518 -1468h-334zM899 608q-147 473 -165 535t-27 98q-33 -128 -189 -633h381zM938 1579q-157 93 -234 176q-78 -81 -229 -176h-203v27q189 189 256 301h357q31 -52 107 -141t149 -160v-27h-203z" />
    <glyph glyph-name="Atilde" unicode="&#xc3;" horiz-adv-x="1413" 
d="M1079 0l-106 348h-533l-106 -348h-334l516 1468h379l518 -1468h-334zM899 608q-147 473 -165 535t-27 98q-33 -128 -189 -633h381zM543 1684q-31 0 -59 -26t-42 -81h-149q11 145 82 227t190 82q41 0 80 -16t78 -36t76 -36t73 -16q31 0 59 26t42 80h149q-11 -145 -83 -227
t-189 -82q-41 0 -80 16t-78 36t-76 36t-73 17z" />
    <glyph glyph-name="Adieresis" unicode="&#xc4;" horiz-adv-x="1413" 
d="M1079 0l-106 348h-533l-106 -348h-334l516 1468h379l518 -1468h-334zM899 608q-147 473 -165 535t-27 98q-33 -128 -189 -633h381zM365 1743q0 65 37 100t102 35q66 0 103 -37t38 -98q0 -60 -38 -96t-103 -37q-64 0 -101 35t-38 98zM768 1743q0 70 40 102t101 33
q65 0 103 -36t39 -99q0 -61 -39 -97t-103 -36q-60 0 -100 32t-41 101z" />
    <glyph glyph-name="Aring" unicode="&#xc5;" horiz-adv-x="1413" 
d="M958 1567q0 -89 -47 -148l502 -1419h-334l-106 348h-533l-106 -348h-334l500 1419q-43 58 -43 146q0 108 67 172t181 65q109 0 181 -64t72 -171zM899 608q-147 473 -165 535t-27 98q-33 -128 -189 -633h381zM801 1565q0 45 -27 70t-69 26q-42 0 -69 -25t-28 -71
q0 -93 97 -97q42 0 69 26t27 71z" />
    <glyph glyph-name="AE" unicode="&#xc6;" horiz-adv-x="1950" 
d="M1829 0h-873v348h-491l-150 -348h-315l655 1462h1174v-254h-563v-321h526v-254h-526v-377h563v-256zM578 608h378v590h-127z" />
    <glyph glyph-name="Ccedilla" unicode="&#xc7;" horiz-adv-x="1305" 
d="M805 1225q-175 0 -271 -131t-96 -367q0 -489 367 -489q154 0 373 77v-260q-180 -75 -402 -75q-319 0 -488 193t-169 556q0 228 83 399t238 263t365 92q213 0 428 -103l-100 -252q-82 39 -165 68t-163 29zM959 -250q0 -128 -75 -185t-234 -57q-78 0 -146 21v168
q27 -7 72 -14t71 -7q72 0 72 62q0 83 -166 108l78 154h193l-27 -61q74 -24 118 -74t44 -115z" />
    <glyph glyph-name="Egrave" unicode="&#xc8;" horiz-adv-x="1147" 
d="M1026 0h-842v1462h842v-254h-532v-321h495v-254h-495v-377h532v-256zM634 1579q-63 44 -185 142t-190 165v21h342q63 -101 235 -301v-27h-202z" />
    <glyph glyph-name="Eacute" unicode="&#xc9;" horiz-adv-x="1147" 
d="M1026 0h-842v1462h842v-254h-532v-321h495v-254h-495v-377h532v-256zM424 1579v27q172 200 235 301h342v-21q-52 -52 -177 -154t-197 -153h-203z" />
    <glyph glyph-name="Ecircumflex" unicode="&#xca;" horiz-adv-x="1147" 
d="M1026 0h-842v1462h842v-254h-532v-321h495v-254h-495v-377h532v-256zM841 1579q-157 93 -234 176q-78 -81 -229 -176h-203v27q189 189 256 301h357q31 -52 107 -141t149 -160v-27h-203z" />
    <glyph glyph-name="Edieresis" unicode="&#xcb;" horiz-adv-x="1147" 
d="M1026 0h-842v1462h842v-254h-532v-321h495v-254h-495v-377h532v-256zM272 1743q0 65 37 100t102 35q66 0 103 -37t38 -98q0 -60 -38 -96t-103 -37q-64 0 -101 35t-38 98zM675 1743q0 70 40 102t101 33q65 0 103 -36t39 -99q0 -61 -39 -97t-103 -36q-60 0 -100 32t-41 101
z" />
    <glyph glyph-name="Igrave" unicode="&#xcc;" horiz-adv-x="797" 
d="M731 0h-665v176l178 82v946l-178 82v176h665v-176l-178 -82v-946l178 -82v-176zM417 1579q-63 44 -185 142t-190 165v21h342q63 -101 235 -301v-27h-202z" />
    <glyph glyph-name="Iacute" unicode="&#xcd;" horiz-adv-x="797" 
d="M731 0h-665v176l178 82v946l-178 82v176h665v-176l-178 -82v-946l178 -82v-176zM237 1579v27q172 200 235 301h342v-21q-52 -52 -177 -154t-197 -153h-203z" />
    <glyph glyph-name="Icircumflex" unicode="&#xce;" horiz-adv-x="797" 
d="M731 0h-665v176l178 82v946l-178 82v176h665v-176l-178 -82v-946l178 -82v-176zM630 1579q-157 93 -234 176q-78 -81 -229 -176h-203v27q189 189 256 301h357q31 -52 107 -141t149 -160v-27h-203z" />
    <glyph glyph-name="Idieresis" unicode="&#xcf;" horiz-adv-x="797" 
d="M731 0h-665v176l178 82v946l-178 82v176h665v-176l-178 -82v-946l178 -82v-176zM57 1743q0 65 37 100t102 35q66 0 103 -37t38 -98q0 -60 -38 -96t-103 -37q-64 0 -101 35t-38 98zM460 1743q0 70 40 102t101 33q65 0 103 -36t39 -99q0 -61 -39 -97t-103 -36
q-60 0 -100 32t-41 101z" />
    <glyph glyph-name="Eth" unicode="&#xd0;" horiz-adv-x="1516" 
d="M47 850h137v612h459q358 0 556 -189t198 -528q0 -361 -205 -553t-594 -192h-414v596h-137v254zM1075 737q0 232 -104 351t-314 120h-163v-358h237v-254h-237v-340h131q450 0 450 481z" />
    <glyph glyph-name="Ntilde" unicode="&#xd1;" horiz-adv-x="1665" 
d="M1481 0h-394l-636 1106h-9q19 -293 19 -418v-688h-277v1462h391l635 -1095h7q-15 285 -15 403v692h279v-1462zM668 1684q-31 0 -59 -26t-42 -81h-149q11 145 82 227t190 82q41 0 80 -16t78 -36t76 -36t73 -16q31 0 59 26t42 80h149q-11 -145 -83 -227t-189 -82
q-41 0 -80 16t-78 36t-76 36t-73 17z" />
    <glyph glyph-name="Ograve" unicode="&#xd2;" horiz-adv-x="1630" 
d="M1511 733q0 -363 -180 -558t-516 -195t-516 195t-180 560t180 557t518 193q337 0 515 -194t179 -558zM444 733q0 -245 93 -369t278 -124q371 0 371 493q0 494 -369 494q-185 0 -279 -124t-94 -370zM824 1579q-63 44 -185 142t-190 165v21h342q63 -101 235 -301v-27h-202z
" />
    <glyph glyph-name="Oacute" unicode="&#xd3;" horiz-adv-x="1630" 
d="M1511 733q0 -363 -180 -558t-516 -195t-516 195t-180 560t180 557t518 193q337 0 515 -194t179 -558zM444 733q0 -245 93 -369t278 -124q371 0 371 493q0 494 -369 494q-185 0 -279 -124t-94 -370zM658 1579v27q172 200 235 301h342v-21q-52 -52 -177 -154t-197 -153
h-203z" />
    <glyph glyph-name="Ocircumflex" unicode="&#xd4;" horiz-adv-x="1630" 
d="M1511 733q0 -363 -180 -558t-516 -195t-516 195t-180 560t180 557t518 193q337 0 515 -194t179 -558zM444 733q0 -245 93 -369t278 -124q371 0 371 493q0 494 -369 494q-185 0 -279 -124t-94 -370zM1047 1579q-157 93 -234 176q-78 -81 -229 -176h-203v27
q189 189 256 301h357q31 -52 107 -141t149 -160v-27h-203z" />
    <glyph glyph-name="Otilde" unicode="&#xd5;" horiz-adv-x="1630" 
d="M1511 733q0 -363 -180 -558t-516 -195t-516 195t-180 560t180 557t518 193q337 0 515 -194t179 -558zM444 733q0 -245 93 -369t278 -124q371 0 371 493q0 494 -369 494q-185 0 -279 -124t-94 -370zM652 1684q-31 0 -59 -26t-42 -81h-149q11 145 82 227t190 82
q41 0 80 -16t78 -36t76 -36t73 -16q31 0 59 26t42 80h149q-11 -145 -83 -227t-189 -82q-41 0 -80 16t-78 36t-76 36t-73 17z" />
    <glyph glyph-name="Odieresis" unicode="&#xd6;" horiz-adv-x="1630" 
d="M1511 733q0 -363 -180 -558t-516 -195t-516 195t-180 560t180 557t518 193q337 0 515 -194t179 -558zM444 733q0 -245 93 -369t278 -124q371 0 371 493q0 494 -369 494q-185 0 -279 -124t-94 -370zM474 1743q0 65 37 100t102 35q66 0 103 -37t38 -98q0 -60 -38 -96
t-103 -37q-64 0 -101 35t-38 98zM877 1743q0 70 40 102t101 33q65 0 103 -36t39 -99q0 -61 -39 -97t-103 -36q-60 0 -100 32t-41 101z" />
    <glyph glyph-name="multiply" unicode="&#xd7;" horiz-adv-x="1168" 
d="M428 663l-299 301l151 154l301 -299l305 299l154 -150l-305 -305l301 -303l-150 -152l-305 301l-301 -299l-149 152z" />
    <glyph glyph-name="Oslash" unicode="&#xd8;" horiz-adv-x="1630" 
d="M1511 733q0 -363 -180 -558t-516 -195q-197 0 -336 65l-90 -135l-162 108l90 136q-198 194 -198 581q0 365 180 557t518 193q198 0 344 -70l84 125l160 -104l-88 -131q194 -194 194 -572zM444 733q0 -191 56 -307l506 756q-84 45 -189 45q-185 0 -279 -124t-94 -370z
M1186 733q0 180 -51 297l-500 -751q76 -39 180 -39q371 0 371 493z" />
    <glyph glyph-name="Ugrave" unicode="&#xd9;" horiz-adv-x="1548" 
d="M1374 1462v-946q0 -162 -72 -284t-210 -187t-324 -65q-282 0 -438 144t-156 396v942h309v-895q0 -169 68 -248t225 -79q152 0 220 79t69 250v893h309zM750 1579q-63 44 -185 142t-190 165v21h342q63 -101 235 -301v-27h-202z" />
    <glyph glyph-name="Uacute" unicode="&#xda;" horiz-adv-x="1548" 
d="M1374 1462v-946q0 -162 -72 -284t-210 -187t-324 -65q-282 0 -438 144t-156 396v942h309v-895q0 -169 68 -248t225 -79q152 0 220 79t69 250v893h309zM602 1579v27q172 200 235 301h342v-21q-52 -52 -177 -154t-197 -153h-203z" />
    <glyph glyph-name="Ucircumflex" unicode="&#xdb;" horiz-adv-x="1548" 
d="M1374 1462v-946q0 -162 -72 -284t-210 -187t-324 -65q-282 0 -438 144t-156 396v942h309v-895q0 -169 68 -248t225 -79q152 0 220 79t69 250v893h309zM1006 1579q-157 93 -234 176q-78 -81 -229 -176h-203v27q189 189 256 301h357q31 -52 107 -141t149 -160v-27h-203z
" />
    <glyph glyph-name="Udieresis" unicode="&#xdc;" horiz-adv-x="1548" 
d="M1374 1462v-946q0 -162 -72 -284t-210 -187t-324 -65q-282 0 -438 144t-156 396v942h309v-895q0 -169 68 -248t225 -79q152 0 220 79t69 250v893h309zM433 1743q0 65 37 100t102 35q66 0 103 -37t38 -98q0 -60 -38 -96t-103 -37q-64 0 -101 35t-38 98zM836 1743
q0 70 40 102t101 33q65 0 103 -36t39 -99q0 -61 -39 -97t-103 -36q-60 0 -100 32t-41 101z" />
    <glyph glyph-name="Yacute" unicode="&#xdd;" horiz-adv-x="1278" 
d="M639 860l305 602h334l-485 -893v-569h-308v559l-485 903h336zM461 1579v27q172 200 235 301h342v-21q-52 -52 -177 -154t-197 -153h-203z" />
    <glyph glyph-name="Thorn" unicode="&#xde;" horiz-adv-x="1286" 
d="M1194 770q0 -229 -142 -353t-405 -124h-153v-293h-310v1462h310v-229h178q254 0 388 -119t134 -344zM494 543h100q145 0 216 52t71 175q0 107 -63 159t-200 52h-124v-438z" />
    <glyph glyph-name="germandbls" unicode="&#xdf;" horiz-adv-x="1456" 
d="M1249 1241q0 -64 -21 -112t-53 -87t-69 -67t-69 -53t-53 -45t-21 -43q0 -27 26 -53t93 -66q146 -91 198 -140t78 -110t26 -139q0 -172 -116 -259t-344 -87q-99 0 -171 14t-132 49v242q53 -36 135 -61t147 -25q168 0 168 123q0 41 -16 66t-57 56t-115 72q-126 72 -175 131
t-49 141q0 64 35 117t105 102q77 55 108 95t31 86q0 60 -63 100t-164 41q-116 0 -181 -52t-65 -149v-1128h-305v1139q0 201 146 314t405 114q244 0 391 -88t147 -238z" />
    <glyph glyph-name="agrave" unicode="&#xe0;" horiz-adv-x="1237" 
d="M870 0l-59 152h-8q-77 -97 -158 -134t-213 -38q-161 0 -253 92t-93 262q0 178 124 262t376 94l194 6v49q0 170 -174 170q-134 0 -315 -81l-101 206q193 101 428 101q225 0 345 -98t120 -298v-745h-213zM780 518l-118 -4q-133 -4 -198 -48t-65 -134q0 -129 148 -129
q106 0 169 61t64 162v92zM870 1241q-63 44 -185 142t-190 165v21h342q63 -101 235 -301v-27h-202z" />
    <glyph glyph-name="aacute" unicode="&#xe1;" horiz-adv-x="1237" 
d="M870 0l-59 152h-8q-77 -97 -158 -134t-213 -38q-161 0 -253 92t-93 262q0 178 124 262t376 94l194 6v49q0 170 -174 170q-134 0 -315 -81l-101 206q193 101 428 101q225 0 345 -98t120 -298v-745h-213zM780 518l-118 -4q-133 -4 -198 -48t-65 -134q0 -129 148 -129
q106 0 169 61t64 162v92zM441 1241v27q172 200 235 301h342v-21q-52 -52 -177 -154t-197 -153h-203z" />
    <glyph glyph-name="acircumflex" unicode="&#xe2;" horiz-adv-x="1237" 
d="M870 0l-59 152h-8q-77 -97 -158 -134t-213 -38q-161 0 -253 92t-93 262q0 178 124 262t376 94l194 6v49q0 170 -174 170q-134 0 -315 -81l-101 206q193 101 428 101q225 0 345 -98t120 -298v-745h-213zM780 518l-118 -4q-133 -4 -198 -48t-65 -134q0 -129 148 -129
q106 0 169 61t64 162v92zM1099 1496q-157 93 -234 176q-78 -81 -229 -176h-203v27q189 189 256 301h357q31 -52 107 -141t149 -160v-27h-203z" />
    <glyph glyph-name="atilde" unicode="&#xe3;" horiz-adv-x="1237" 
d="M870 0l-59 152h-8q-77 -97 -158 -134t-213 -38q-161 0 -253 92t-93 262q0 178 124 262t376 94l194 6v49q0 170 -174 170q-134 0 -315 -81l-101 206q193 101 428 101q225 0 345 -98t120 -298v-745h-213zM780 518l-118 -4q-133 -4 -198 -48t-65 -134q0 -129 148 -129
q106 0 169 61t64 162v92zM467 1346q-31 0 -59 -26t-42 -81h-149q11 145 82 227t190 82q41 0 80 -16t78 -36t76 -36t73 -16q31 0 59 26t42 80h149q-11 -145 -83 -227t-189 -82q-41 0 -80 16t-78 36t-76 36t-73 17z" />
    <glyph glyph-name="adieresis" unicode="&#xe4;" horiz-adv-x="1237" 
d="M870 0l-59 152h-8q-77 -97 -158 -134t-213 -38q-161 0 -253 92t-93 262q0 178 124 262t376 94l194 6v49q0 170 -174 170q-134 0 -315 -81l-101 206q193 101 428 101q225 0 345 -98t120 -298v-745h-213zM780 518l-118 -4q-133 -4 -198 -48t-65 -134q0 -129 148 -129
q106 0 169 61t64 162v92zM285 1405q0 65 37 100t102 35q66 0 103 -37t38 -98q0 -60 -38 -96t-103 -37q-64 0 -101 35t-38 98zM688 1405q0 70 40 102t101 33q65 0 103 -36t39 -99q0 -61 -39 -97t-103 -36q-60 0 -100 32t-41 101z" />
    <glyph glyph-name="aring" unicode="&#xe5;" horiz-adv-x="1237" 
d="M870 0l-59 152h-8q-77 -97 -158 -134t-213 -38q-161 0 -253 92t-93 262q0 178 124 262t376 94l194 6v49q0 170 -174 170q-134 0 -315 -81l-101 206q193 101 428 101q225 0 345 -98t120 -298v-745h-213zM780 518l-118 -4q-133 -4 -198 -48t-65 -134q0 -129 148 -129
q106 0 169 61t64 162v92zM883 1479q0 -108 -71 -174t-183 -66t-180 64t-68 174q0 108 67 172t181 65q110 0 182 -66t72 -169zM725 1477q0 45 -27 70t-69 26q-42 0 -69 -25t-27 -71q0 -45 24 -71t72 -26q42 0 69 26t27 71z" />
    <glyph glyph-name="ae" unicode="&#xe6;" horiz-adv-x="1878" 
d="M1329 -20q-137 0 -249 50t-185 156q-98 -117 -196 -161t-257 -45q-161 0 -258 94t-98 260q0 178 121 262t362 94l191 6v84q0 69 -44 102t-122 33q-140 0 -305 -77l-99 202q189 101 422 101q227 0 342 -131q66 64 152 96t207 33q221 0 349 -137t128 -371v-148h-723
q5 -130 77 -203t202 -73q196 0 380 88v-236q-79 -39 -171 -59t-226 -20zM760 518l-113 -4q-124 -4 -186 -47t-62 -135q0 -129 140 -129q101 0 161 61t60 162v92zM1307 922q-217 0 -234 -236h430q-2 112 -55 174t-141 62z" />
    <glyph glyph-name="ccedilla" unicode="&#xe7;" horiz-adv-x="1053" 
d="M614 -20q-522 0 -522 573q0 285 142 435t407 151q194 0 348 -76l-90 -236q-72 29 -134 47t-124 19q-238 0 -238 -338q0 -328 238 -328q88 0 163 23t150 74v-261q-74 -47 -149 -65t-191 -18zM805 -250q0 -128 -75 -185t-234 -57q-78 0 -146 21v168q27 -7 72 -14t71 -7
q72 0 72 62q0 83 -166 108l78 154h193l-27 -61q74 -24 118 -74t44 -115z" />
    <glyph glyph-name="egrave" unicode="&#xe8;" horiz-adv-x="1210" 
d="M623 922q-97 0 -152 -61t-63 -175h428q-2 113 -59 174t-154 62zM666 -20q-270 0 -422 149t-152 422q0 281 140 434t389 154q237 0 369 -135t132 -373v-148h-721q5 -130 77 -203t202 -73q101 0 191 21t188 67v-236q-80 -40 -171 -59t-222 -20zM876 1241q-63 44 -185 142
t-190 165v21h342q63 -101 235 -301v-27h-202z" />
    <glyph glyph-name="eacute" unicode="&#xe9;" horiz-adv-x="1210" 
d="M623 922q-97 0 -152 -61t-63 -175h428q-2 113 -59 174t-154 62zM666 -20q-270 0 -422 149t-152 422q0 281 140 434t389 154q237 0 369 -135t132 -373v-148h-721q5 -130 77 -203t202 -73q101 0 191 21t188 67v-236q-80 -40 -171 -59t-222 -20zM447 1241v27
q172 200 235 301h342v-21q-52 -52 -177 -154t-197 -153h-203z" />
    <glyph glyph-name="ecircumflex" unicode="&#xea;" horiz-adv-x="1210" 
d="M623 922q-97 0 -152 -61t-63 -175h428q-2 113 -59 174t-154 62zM666 -20q-270 0 -422 149t-152 422q0 281 140 434t389 154q237 0 369 -135t132 -373v-148h-721q5 -130 77 -203t202 -73q101 0 191 21t188 67v-236q-80 -40 -171 -59t-222 -20zM860 1241q-157 93 -234 176
q-78 -81 -229 -176h-203v27q189 189 256 301h357q31 -52 107 -141t149 -160v-27h-203z" />
    <glyph glyph-name="edieresis" unicode="&#xeb;" horiz-adv-x="1210" 
d="M623 922q-97 0 -152 -61t-63 -175h428q-2 113 -59 174t-154 62zM666 -20q-270 0 -422 149t-152 422q0 281 140 434t389 154q237 0 369 -135t132 -373v-148h-721q5 -130 77 -203t202 -73q101 0 191 21t188 67v-236q-80 -40 -171 -59t-222 -20zM297 1405q0 65 37 100
t102 35q66 0 103 -37t38 -98q0 -60 -38 -96t-103 -37q-64 0 -101 35t-38 98zM700 1405q0 70 40 102t101 33q65 0 103 -36t39 -99q0 -61 -39 -97t-103 -36q-60 0 -100 32t-41 101z" />
    <glyph glyph-name="igrave" unicode="&#xec;" horiz-adv-x="625" 
d="M465 0h-305v1118h305v-1118zM274 1241q-63 44 -185 142t-190 165v21h342q63 -101 235 -301v-27h-202z" />
    <glyph glyph-name="iacute" unicode="&#xed;" horiz-adv-x="625" 
d="M465 0h-305v1118h305v-1118zM145 1241v27q172 200 235 301h342v-21q-52 -52 -177 -154t-197 -153h-203z" />
    <glyph glyph-name="icircumflex" unicode="&#xee;" horiz-adv-x="625" 
d="M465 0h-305v1118h305v-1118zM544 1241q-157 93 -234 176q-78 -81 -229 -176h-203v27q189 189 256 301h357q31 -52 107 -141t149 -160v-27h-203z" />
    <glyph glyph-name="idieresis" unicode="&#xef;" horiz-adv-x="625" 
d="M465 0h-305v1118h305v-1118zM-29 1405q0 65 37 100t102 35q66 0 103 -37t38 -98q0 -60 -38 -96t-103 -37q-64 0 -101 35t-38 98zM374 1405q0 70 40 102t101 33q65 0 103 -36t39 -99q0 -61 -39 -97t-103 -36q-60 0 -100 32t-41 101z" />
    <glyph glyph-name="eth" unicode="&#xf0;" horiz-adv-x="1268" 
d="M510 1298q-89 59 -152 93l101 176q148 -67 258 -142l225 140l100 -154l-170 -104q156 -143 230 -322t74 -412q0 -280 -145 -436t-400 -157q-245 0 -392 137t-147 372q0 233 130 369t351 137q205 0 275 -98l8 4q-64 155 -192 277l-230 -142l-100 156zM864 532
q0 108 -61 173t-168 65q-121 0 -176 -68t-56 -215q0 -140 60 -211t172 -71q123 0 176 82t53 245z" />
    <glyph glyph-name="ntilde" unicode="&#xf1;" horiz-adv-x="1346" 
d="M1192 0h-305v653q0 121 -43 181t-137 61q-128 0 -185 -85t-57 -284v-526h-305v1118h233l41 -143h17q51 81 140 122t204 42q195 0 296 -105t101 -305v-729zM508 1346q-31 0 -59 -26t-42 -81h-149q11 145 82 227t190 82q41 0 80 -16t78 -36t76 -36t73 -16q31 0 59 26t42 80
h149q-11 -145 -83 -227t-189 -82q-41 0 -80 16t-78 36t-76 36t-73 17z" />
    <glyph glyph-name="ograve" unicode="&#xf2;" horiz-adv-x="1268" 
d="M403 561q0 -166 54 -251t178 -85q122 0 175 84t54 252q0 166 -54 249t-177 83q-122 0 -176 -82t-54 -250zM1176 561q0 -273 -144 -427t-401 -154q-161 0 -284 70t-189 203t-66 308q0 274 143 426t402 152q161 0 284 -70t189 -201t66 -307zM868 1241q-63 44 -185 142
t-190 165v21h342q63 -101 235 -301v-27h-202z" />
    <glyph glyph-name="oacute" unicode="&#xf3;" horiz-adv-x="1268" 
d="M403 561q0 -166 54 -251t178 -85q122 0 175 84t54 252q0 166 -54 249t-177 83q-122 0 -176 -82t-54 -250zM1176 561q0 -273 -144 -427t-401 -154q-161 0 -284 70t-189 203t-66 308q0 274 143 426t402 152q161 0 284 -70t189 -201t66 -307zM467 1241v27q172 200 235 301
h342v-21q-52 -52 -177 -154t-197 -153h-203z" />
    <glyph glyph-name="ocircumflex" unicode="&#xf4;" horiz-adv-x="1268" 
d="M403 561q0 -166 54 -251t178 -85q122 0 175 84t54 252q0 166 -54 249t-177 83q-122 0 -176 -82t-54 -250zM1176 561q0 -273 -144 -427t-401 -154q-161 0 -284 70t-189 203t-66 308q0 274 143 426t402 152q161 0 284 -70t189 -201t66 -307zM864 1241q-157 93 -234 176
q-78 -81 -229 -176h-203v27q189 189 256 301h357q31 -52 107 -141t149 -160v-27h-203z" />
    <glyph glyph-name="otilde" unicode="&#xf5;" horiz-adv-x="1268" 
d="M403 561q0 -166 54 -251t178 -85q122 0 175 84t54 252q0 166 -54 249t-177 83q-122 0 -176 -82t-54 -250zM1176 561q0 -273 -144 -427t-401 -154q-161 0 -284 70t-189 203t-66 308q0 274 143 426t402 152q161 0 284 -70t189 -201t66 -307zM469 1346q-31 0 -59 -26
t-42 -81h-149q11 145 82 227t190 82q41 0 80 -16t78 -36t76 -36t73 -16q31 0 59 26t42 80h149q-11 -145 -83 -227t-189 -82q-41 0 -80 16t-78 36t-76 36t-73 17z" />
    <glyph glyph-name="odieresis" unicode="&#xf6;" horiz-adv-x="1268" 
d="M403 561q0 -166 54 -251t178 -85q122 0 175 84t54 252q0 166 -54 249t-177 83q-122 0 -176 -82t-54 -250zM1176 561q0 -273 -144 -427t-401 -154q-161 0 -284 70t-189 203t-66 308q0 274 143 426t402 152q161 0 284 -70t189 -201t66 -307zM291 1405q0 65 37 100t102 35
q66 0 103 -37t38 -98q0 -60 -38 -96t-103 -37q-64 0 -101 35t-38 98zM694 1405q0 70 40 102t101 33q65 0 103 -36t39 -99q0 -61 -39 -97t-103 -36q-60 0 -100 32t-41 101z" />
    <glyph glyph-name="divide" unicode="&#xf7;" horiz-adv-x="1168" 
d="M108 552v219h952v-219h-952zM444 313q0 42 11 71t30 46t44 26t54 8q28 0 53 -8t44 -25t30 -47t12 -71q0 -40 -11 -69t-31 -47t-44 -27t-53 -9q-28 0 -53 8t-45 27t-30 48t-11 69zM444 1011q0 42 11 71t30 47t44 26t54 8q28 0 53 -8t44 -26t30 -47t12 -71q0 -40 -11 -68
t-31 -47t-44 -27t-53 -9q-28 0 -53 8t-45 27t-30 47t-11 69z" />
    <glyph glyph-name="oslash" unicode="&#xf8;" horiz-adv-x="1268" 
d="M1176 561q0 -273 -144 -427t-401 -154q-126 0 -234 45l-67 -101l-154 105l68 100q-152 156 -152 432q0 274 143 426t402 152q132 0 248 -52l55 82l152 -108l-58 -84q142 -155 142 -416zM403 561q0 -94 19 -166l317 475q-43 23 -106 23q-122 0 -176 -82t-54 -250zM864 561
q0 81 -12 141l-309 -462q38 -15 92 -15q122 0 175 84t54 252z" />
    <glyph glyph-name="ugrave" unicode="&#xf9;" horiz-adv-x="1346" 
d="M952 0l-41 143h-16q-49 -78 -139 -120t-205 -43q-197 0 -297 105t-100 304v729h305v-653q0 -121 43 -181t137 -61q128 0 185 85t57 284v526h305v-1118h-234zM876 1241q-63 44 -185 142t-190 165v21h342q63 -101 235 -301v-27h-202z" />
    <glyph glyph-name="uacute" unicode="&#xfa;" horiz-adv-x="1346" 
d="M952 0l-41 143h-16q-49 -78 -139 -120t-205 -43q-197 0 -297 105t-100 304v729h305v-653q0 -121 43 -181t137 -61q128 0 185 85t57 284v526h305v-1118h-234zM498 1241v27q172 200 235 301h342v-21q-52 -52 -177 -154t-197 -153h-203z" />
    <glyph glyph-name="ucircumflex" unicode="&#xfb;" horiz-adv-x="1346" 
d="M952 0l-41 143h-16q-49 -78 -139 -120t-205 -43q-197 0 -297 105t-100 304v729h305v-653q0 -121 43 -181t137 -61q128 0 185 85t57 284v526h305v-1118h-234zM901 1241q-157 93 -234 176q-78 -81 -229 -176h-203v27q189 189 256 301h357q31 -52 107 -141t149 -160v-27
h-203z" />
    <glyph glyph-name="udieresis" unicode="&#xfc;" horiz-adv-x="1346" 
d="M952 0l-41 143h-16q-49 -78 -139 -120t-205 -43q-197 0 -297 105t-100 304v729h305v-653q0 -121 43 -181t137 -61q128 0 185 85t57 284v526h305v-1118h-234zM326 1405q0 65 37 100t102 35q66 0 103 -37t38 -98q0 -60 -38 -96t-103 -37q-64 0 -101 35t-38 98zM729 1405
q0 70 40 102t101 33q65 0 103 -36t39 -99q0 -61 -39 -97t-103 -36q-60 0 -100 32t-41 101z" />
    <glyph glyph-name="yacute" unicode="&#xfd;" horiz-adv-x="1165" 
d="M0 1118h334l211 -629q27 -82 37 -194h6q11 103 43 194l207 629h327l-473 -1261q-65 -175 -185 -262t-282 -87q-79 0 -155 17v242q55 -13 120 -13q81 0 141 49t95 150l18 55zM393 1241v27q172 200 235 301h342v-21q-52 -52 -177 -154t-197 -153h-203z" />
    <glyph glyph-name="thorn" unicode="&#xfe;" horiz-adv-x="1296" 
d="M465 973q50 81 131 123t186 43q198 0 310 -154t112 -424q0 -273 -111 -427t-311 -154q-213 0 -317 137h-14l7 -62l7 -94v-453h-305v2048h305v-391l-7 -120l-7 -72h14zM684 895q-113 0 -165 -69t-54 -230v-33q0 -180 53 -258t170 -78q205 0 205 338q0 165 -50 247t-159 83
z" />
    <glyph glyph-name="ydieresis" unicode="&#xff;" horiz-adv-x="1165" 
d="M0 1118h334l211 -629q27 -82 37 -194h6q11 103 43 194l207 629h327l-473 -1261q-65 -175 -185 -262t-282 -87q-79 0 -155 17v242q55 -13 120 -13q81 0 141 49t95 150l18 55zM499 1405q0 65 37 100t102 35q66 0 103 -37t38 -98q0 -60 -38 -96t-103 -37q-64 0 -101 35
t-38 98zM902 1405q0 70 40 102t101 33q65 0 103 -36t39 -99q0 -61 -39 -97t-103 -36q-60 0 -100 32t-41 101z" />
    <glyph glyph-name="endash" unicode="&#x2013;" horiz-adv-x="1024" 
d="M82 496v230h860v-230h-860z" />
    <glyph glyph-name="emdash" unicode="&#x2014;" horiz-adv-x="2048" 
d="M82 496v230h1884v-230h-1884z" />
    <glyph glyph-name="quoteleft" unicode="&#x2018;" horiz-adv-x="687" 
d="M159 1014q14 55 33 115t43 123t49 124t51 117h220q-15 -60 -29 -126l-28 -132t-25 -128t-19 -115h-280z" />
    <glyph glyph-name="quoteright" unicode="&#x2019;" horiz-adv-x="686" 
d="M576 1471q-14 -55 -33 -115t-43 -123t-49 -124t-51 -117h-219q14 60 28 126l28 132t25 128t19 115h280z" />
    <glyph glyph-name="quotesinglbase" unicode="&#x201a;" horiz-adv-x="584" 
d="M459 215q-52 -202 -176 -479h-220q65 266 101 502h280z" />
    <glyph glyph-name="quotedblleft" unicode="&#x201c;" horiz-adv-x="1153" 
d="M626 1014q14 55 33 115t43 123t49 124t51 117h219q-14 -60 -28 -126l-28 -132t-25 -128t-19 -115h-280zM159 1014q14 55 33 115t43 123t49 124t51 117h220q-15 -60 -29 -126l-28 -132t-25 -128t-19 -115h-280z" />
    <glyph glyph-name="quotedblright" unicode="&#x201d;" horiz-adv-x="1153" 
d="M576 1471q-14 -55 -33 -115t-43 -123t-49 -124t-51 -117h-219q14 60 28 126l28 132t25 128t19 115h280zM1043 1471q-14 -55 -33 -115t-43 -123t-49 -124t-51 -117h-220q15 60 29 126l28 132t25 128t19 115h280z" />
    <glyph glyph-name="quotedblbase" unicode="&#x201e;" horiz-adv-x="1051" 
d="M459 215q-52 -202 -176 -479h-220q65 266 101 502h280zM926 215q-52 -202 -176 -479h-220q65 266 101 502h280z" />
    <glyph glyph-name="bullet" unicode="&#x2022;" horiz-adv-x="770" 
d="M98 748q0 154 74 235t213 82q137 0 212 -82t75 -235q0 -152 -75 -235t-212 -83q-138 0 -212 83t-75 235z" />
    <glyph glyph-name="guilsinglleft" unicode="&#x2039;" horiz-adv-x="754" 
d="M82 573l371 455l219 -119l-279 -348l279 -348l-219 -119l-371 453v26z" />
    <glyph glyph-name="guilsinglright" unicode="&#x203a;" horiz-adv-x="754" 
d="M672 547l-371 -453l-219 119l278 348l-278 348l219 119l371 -455v-26z" />
  </font>
</defs>
</svg>
